{
	"patcher" : 	{
		"fileversion" : 1,
		"appversion" : 		{
			"major" : 8,
			"minor" : 3,
			"revision" : 3,
			"architecture" : "x64",
			"modernui" : 1
		}
,
		"classnamespace" : "box",
		"rect" : [ 34.0, 117.0, 1612.0, 856.0 ],
		"bglocked" : 0,
		"openinpresentation" : 0,
		"default_fontsize" : 12.0,
		"default_fontface" : 0,
		"default_fontname" : "Arial",
		"gridonopen" : 1,
		"gridsize" : [ 15.0, 15.0 ],
		"gridsnaponopen" : 1,
		"objectsnaponopen" : 1,
		"statusbarvisible" : 2,
		"toolbarvisible" : 1,
		"lefttoolbarpinned" : 0,
		"toptoolbarpinned" : 0,
		"righttoolbarpinned" : 0,
		"bottomtoolbarpinned" : 0,
		"toolbars_unpinned_last_save" : 0,
		"tallnewobj" : 0,
		"boxanimatetime" : 200,
		"enablehscroll" : 1,
		"enablevscroll" : 1,
		"devicewidth" : 0.0,
		"description" : "",
		"digest" : "",
		"tags" : "",
		"style" : "",
		"subpatcher_template" : "",
		"assistshowspatchername" : 0,
		"boxes" : [ 			{
				"box" : 				{
					"id" : "obj-13",
					"maxclass" : "newobj",
					"numinlets" : 1,
					"numoutlets" : 1,
					"outlettype" : [ "multichannelsignal" ],
					"patching_rect" : [ 229.0, 647.0, 53.0, 22.0 ],
					"text" : "mc.limi~"
				}

			}
, 			{
				"box" : 				{
					"bgmode" : 0,
					"border" : 0,
					"clickthrough" : 0,
					"enablehscroll" : 0,
					"enablevscroll" : 0,
					"id" : "obj-12",
					"lockeddragscroll" : 0,
					"lockedsize" : 0,
					"maxclass" : "bpatcher",
					"name" : "record.maxpat",
					"numinlets" : 1,
					"numoutlets" : 1,
					"offset" : [ 0.0, 0.0 ],
					"outlettype" : [ "" ],
					"patching_rect" : [ 1340.0, 437.0, 128.0, 128.0 ],
					"presentation" : 1,
					"presentation_rect" : [ 1340.0, 437.0, 128.0, 128.0 ],
					"viewvisibility" : 1
				}

			}
, 			{
				"box" : 				{
					"id" : "obj-69",
					"maxclass" : "newobj",
					"numinlets" : 3,
					"numoutlets" : 1,
					"outlettype" : [ "multichannelsignal" ],
					"patching_rect" : [ 71.0, 252.0, 48.0, 22.0 ],
					"text" : "LFOs 8"
				}

			}
, 			{
				"box" : 				{
					"id" : "obj-67",
					"maxclass" : "comment",
					"numinlets" : 1,
					"numoutlets" : 0,
					"patching_rect" : [ 258.666666666666742, 455.0, 150.0, 20.0 ],
					"presentation" : 1,
					"presentation_rect" : [ 260.0, 455.0, 24.0, 20.0 ],
					"text" : "0"
				}

			}
, 			{
				"box" : 				{
					"id" : "obj-66",
					"maxclass" : "comment",
					"numinlets" : 1,
					"numoutlets" : 0,
					"patching_rect" : [ 530.666666666666742, 453.0, 150.0, 20.0 ],
					"presentation" : 1,
					"presentation_rect" : [ 530.666666666666742, 455.0, 24.0, 20.0 ],
					"text" : "0"
				}

			}
, 			{
				"box" : 				{
					"id" : "obj-65",
					"maxclass" : "comment",
					"numinlets" : 1,
					"numoutlets" : 0,
					"patching_rect" : [ 529.666666666666742, 483.0, 150.0, 20.0 ],
					"presentation" : 1,
					"presentation_rect" : [ 530.666666666666742, 481.0, 24.0, 20.0 ],
					"text" : "*-1"
				}

			}
, 			{
				"box" : 				{
					"id" : "obj-59",
					"maxclass" : "button",
					"numinlets" : 1,
					"numoutlets" : 1,
					"outlettype" : [ "bang" ],
					"parameter_enable" : 0,
					"patching_rect" : [ 1563.0, 233.0, 24.0, 24.0 ],
					"presentation" : 1,
					"presentation_rect" : [ 504.666666666666742, 481.0, 24.0, 24.0 ]
				}

			}
, 			{
				"box" : 				{
					"id" : "obj-60",
					"maxclass" : "newobj",
					"numinlets" : 1,
					"numoutlets" : 1,
					"outlettype" : [ "" ],
					"patching_rect" : [ 1494.5, 353.0, 77.0, 22.0 ],
					"text" : "vexpr $f1*-1."
				}

			}
, 			{
				"box" : 				{
					"id" : "obj-58",
					"maxclass" : "comment",
					"numinlets" : 1,
					"numoutlets" : 0,
					"patching_rect" : [ 531.666666666666742, 226.0, 150.0, 20.0 ],
					"presentation" : 1,
					"presentation_rect" : [ 530.666666666666742, 276.0, 24.0, 20.0 ],
					"text" : "*-1"
				}

			}
, 			{
				"box" : 				{
					"id" : "obj-56",
					"maxclass" : "button",
					"numinlets" : 1,
					"numoutlets" : 1,
					"outlettype" : [ "bang" ],
					"parameter_enable" : 0,
					"patching_rect" : [ 1224.0, 225.0, 24.0, 24.0 ],
					"presentation" : 1,
					"presentation_rect" : [ 504.666666666666742, 274.0, 24.0, 24.0 ]
				}

			}
, 			{
				"box" : 				{
					"id" : "obj-55",
					"maxclass" : "newobj",
					"numinlets" : 1,
					"numoutlets" : 1,
					"outlettype" : [ "" ],
					"patching_rect" : [ 1155.5, 345.0, 77.0, 22.0 ],
					"text" : "vexpr $f1*-1."
				}

			}
, 			{
				"box" : 				{
					"id" : "obj-25",
					"maxclass" : "preset",
					"numinlets" : 1,
					"numoutlets" : 5,
					"outlettype" : [ "preset", "int", "preset", "int", "" ],
					"patching_rect" : [ 1389.0, 458.0, 100.0, 40.0 ],
					"presentation" : 1,
					"presentation_rect" : [ 1357.0, 54.0, 100.0, 40.0 ],
					"preset_data" : [ 						{
							"number" : 1,
							"data" : [ 12, "obj-43", "multislider", "list", 9, 5, 10, 12, 11, 14, 11, 12, 12, "obj-64", "multislider", "list", 2.84, 3.0, 3.0, 3.0, -1.36, 3.0, 3.0, 3.0, 5, "obj-57", "mc.live.gain~", "float", 0.0, 12, "obj-92", "multislider", "list", 0.44, 0.206666666666667, 0.686666666666667, 0.606666666666667, 0.066666666666667, 0.193333333333333, 0.153333333333333, 0.1, 12, "obj-37", "multislider", "list", 0.16, -0.36, -0.52, -1.4, 1.4, -0.32, -1.16, -0.92, 5, "obj-5", "flonum", "float", 140.0, 5, "obj-3", "attrui", "attr", "mode", 4, "obj-3", "attrui", "fold", 5, "obj-2", "mc.live.gain~", "float", 0.0, 5, "obj-7", "mc.live.gain~", "float", -27.630247116088867, 12, "obj-11", "multislider", "list", 10, 5, 5, 7, 7, 6, 6, 8, 12, "obj-26", "multislider", "list", 0.36, 1.4, 1.44, 1.44, 0.64, 1.52, 1.04, 1.24, 6, "obj-28", "number~", "list", 0.0, 0.0, 5, "obj-32", "mc.live.gain~", "float", -70.0, 5, "obj-75", "umenu", "int", 1, 5, "obj-103", "attrui", "attr", "fb1", 5, "obj-103", "attrui", "float", 0.0, 5, "obj-104", "attrui", "attr", "fb2", 5, "obj-104", "attrui", "float", 0.0, 5, "obj-105", "attrui", "attr", "damp", 5, "obj-105", "attrui", "float", 0.932, 5, "obj-106", "attrui", "attr", "pspread", 5, "obj-106", "attrui", "float", 2.239, 5, "obj-140", "attrui", "attr", "setmode", 5, "obj-140", "attrui", "int", 4 ]
						}
, 						{
							"number" : 2,
							"data" : [ 12, "obj-43", "multislider", "list", 8, 9, 7, 11, 8, 7, 9, 16, 12, "obj-64", "multislider", "list", -3.0, 2.12, 0.8, -1.48, -1.92, -2.04, -1.48, -1.2, 5, "obj-57", "mc.live.gain~", "float", 0.0, 12, "obj-92", "multislider", "list", 0.56, 0.44, 0.44, 0.8, 0.826666666666667, 0.346666666666667, 0.506666666666667, 0.393333333333333, 12, "obj-37", "multislider", "list", -0.64, -0.88, -0.88, -0.88, -0.88, -0.84, -0.88, -0.76, 5, "obj-5", "flonum", "float", 10.0, 5, "obj-3", "attrui", "attr", "mode", 4, "obj-3", "attrui", "wrap", 5, "obj-2", "mc.live.gain~", "float", -3.0, 5, "obj-7", "mc.live.gain~", "float", -15.543307304382324, 12, "obj-11", "multislider", "list", 3, 3, 3, 3, 3, 3, 3, 3, 12, "obj-26", "multislider", "list", -0.56, -0.76, 0.12, 0.12, 0.08, 0.2, 0.52, 0.0, 6, "obj-28", "number~", "list", 0.0, 0.0, 5, "obj-32", "mc.live.gain~", "float", -70.0, 5, "obj-75", "umenu", "int", 2, 5, "obj-103", "attrui", "attr", "fb1", 5, "obj-103", "attrui", "float", 0.9, 5, "obj-104", "attrui", "attr", "fb2", 5, "obj-104", "attrui", "float", 0.5, 5, "obj-105", "attrui", "attr", "damp", 5, "obj-105", "attrui", "float", 0.5, 5, "obj-106", "attrui", "attr", "pspread", 5, "obj-106", "attrui", "float", 1.5, 5, "obj-140", "attrui", "attr", "setmode", 5, "obj-140", "attrui", "int", 4 ]
						}
, 						{
							"number" : 9,
							"data" : [ 12, "obj-43", "multislider", "list", 9, 5, 10, 12, 11, 14, 11, 12, 12, "obj-64", "multislider", "list", 2.84, 3.0, 3.0, 3.0, -1.36, 3.0, 3.0, 3.0, 5, "obj-57", "mc.live.gain~", "float", 0.0, 12, "obj-92", "multislider", "list", 0.44, 0.206666666666667, 0.686666666666667, 0.606666666666667, 0.066666666666667, 0.193333333333333, 0.153333333333333, 0.1, 12, "obj-37", "multislider", "list", -0.16, 0.36, 0.52, 1.4, -1.4, 0.32, 1.16, 0.92, 5, "obj-5", "flonum", "float", 140.0, 5, "obj-3", "attrui", "attr", "mode", 4, "obj-3", "attrui", "fold", 5, "obj-2", "mc.live.gain~", "float", 0.0, 5, "obj-7", "mc.live.gain~", "float", -27.630247116088867, 12, "obj-11", "multislider", "list", 10, 5, 5, 7, 7, 6, 6, 8, 12, "obj-26", "multislider", "list", 0.36, 1.4, 1.44, 1.44, 0.64, 1.52, 1.04, 1.24, 6, "obj-28", "number~", "list", 0.0, 0.0, 5, "obj-32", "mc.live.gain~", "float", -70.0, 5, "obj-75", "umenu", "int", 2, 5, "obj-103", "attrui", "attr", "fb1", 5, "obj-103", "attrui", "float", 0.0, 5, "obj-104", "attrui", "attr", "fb2", 5, "obj-104", "attrui", "float", 0.0, 5, "obj-105", "attrui", "attr", "damp", 5, "obj-105", "attrui", "float", 0.932, 5, "obj-106", "attrui", "attr", "pspread", 5, "obj-106", "attrui", "float", 2.239, 5, "obj-140", "attrui", "attr", "setmode", 5, "obj-140", "attrui", "int", 4 ]
						}
 ]
				}

			}
, 			{
				"box" : 				{
					"id" : "obj-24",
					"linecount" : 3,
					"maxclass" : "message",
					"numinlets" : 2,
					"numoutlets" : 1,
					"outlettype" : [ "" ],
					"patching_rect" : [ 653.0, 236.0, 58.0, 49.0 ],
					"presentation" : 1,
					"presentation_rect" : [ 7.0, 248.0, 225.0, 22.0 ],
					"text" : "9 5 10 12 11 14 11 12"
				}

			}
, 			{
				"box" : 				{
					"id" : "obj-23",
					"linecount" : 7,
					"maxclass" : "message",
					"numinlets" : 2,
					"numoutlets" : 1,
					"outlettype" : [ "" ],
					"patching_rect" : [ 1420.0, 247.0, 55.0, 102.0 ],
					"presentation" : 1,
					"presentation_rect" : [ 281.666666666666686, 455.0, 223.0, 22.0 ],
					"text" : "-0.16 0.36 0.52 1.4 -1.4 0.32 1.16 0.92"
				}

			}
, 			{
				"box" : 				{
					"id" : "obj-21",
					"linecount" : 3,
					"maxclass" : "message",
					"numinlets" : 2,
					"numoutlets" : 1,
					"outlettype" : [ "" ],
					"patching_rect" : [ 1152.0, 259.0, 59.0, 49.0 ],
					"presentation" : 1,
					"presentation_rect" : [ 281.666666666666686, 248.0, 221.0, 22.0 ],
					"text" : "2.84 3. 3. 3. -1.36 3. 3. 3."
				}

			}
, 			{
				"box" : 				{
					"id" : "obj-20",
					"linecount" : 7,
					"maxclass" : "message",
					"numinlets" : 2,
					"numoutlets" : 1,
					"outlettype" : [ "" ],
					"patching_rect" : [ 1448.0, 720.0, 50.0, 102.0 ],
					"presentation" : 1,
					"presentation_rect" : [ 11.0, 679.0, 221.0, 22.0 ],
					"text" : "2.5 0.625 0.625 1.225 1.225 0.9 0.9 1.6"
				}

			}
, 			{
				"box" : 				{
					"id" : "obj-15",
					"linecount" : 8,
					"maxclass" : "message",
					"numinlets" : 2,
					"numoutlets" : 1,
					"outlettype" : [ "" ],
					"patching_rect" : [ 1106.0, 1017.0, 50.0, 116.0 ],
					"presentation" : 1,
					"presentation_rect" : [ 281.666666666666686, 679.0, 221.0, 22.0 ],
					"text" : "0.36 1.4 1.44 1.44 0.64 1.52 1.04 1.24"
				}

			}
, 			{
				"box" : 				{
					"id" : "obj-4",
					"maxclass" : "message",
					"numinlets" : 2,
					"numoutlets" : 1,
					"outlettype" : [ "" ],
					"patching_rect" : [ 1242.5, 826.0, 85.0, 22.0 ],
					"text" : "1 1 1 1 1 1 1 1"
				}

			}
, 			{
				"box" : 				{
					"id" : "obj-169",
					"maxclass" : "newobj",
					"numinlets" : 1,
					"numoutlets" : 1,
					"outlettype" : [ "" ],
					"patching_rect" : [ 1289.666666666666742, 701.0, 118.0, 22.0 ],
					"text" : "vexpr pow($f1\\, 2)/40"
				}

			}
, 			{
				"box" : 				{
					"id" : "obj-155",
					"maxclass" : "message",
					"numinlets" : 2,
					"numoutlets" : 1,
					"outlettype" : [ "" ],
					"patching_rect" : [ 1253.0, 32.0, 85.0, 22.0 ],
					"text" : "1 1 1 1 1 1 1 1"
				}

			}
, 			{
				"box" : 				{
					"id" : "obj-153",
					"maxclass" : "button",
					"numinlets" : 1,
					"numoutlets" : 1,
					"outlettype" : [ "bang" ],
					"parameter_enable" : 0,
					"patching_rect" : [ 1255.666666666666742, 789.0, 24.0, 24.0 ],
					"presentation" : 1,
					"presentation_rect" : [ 504.666666666666742, 704.0, 24.0, 24.0 ]
				}

			}
, 			{
				"box" : 				{
					"id" : "obj-152",
					"maxclass" : "comment",
					"numinlets" : 1,
					"numoutlets" : 0,
					"patching_rect" : [ 527.666666666666742, 677.0, 150.0, 20.0 ],
					"presentation" : 1,
					"presentation_rect" : [ 530.666666666666742, 678.0, 19.0, 20.0 ],
					"text" : "0"
				}

			}
, 			{
				"box" : 				{
					"id" : "obj-151",
					"maxclass" : "comment",
					"numinlets" : 1,
					"numoutlets" : 0,
					"patching_rect" : [ 530.666666666666742, 702.0, 150.0, 20.0 ],
					"presentation" : 1,
					"presentation_rect" : [ 530.666666666666742, 704.0, 19.0, 20.0 ],
					"text" : "1"
				}

			}
, 			{
				"box" : 				{
					"id" : "obj-150",
					"maxclass" : "comment",
					"numinlets" : 1,
					"numoutlets" : 0,
					"patching_rect" : [ 530.666666666666742, 273.0, 150.0, 20.0 ],
					"presentation" : 1,
					"presentation_rect" : [ 530.666666666666742, 222.0, 19.0, 20.0 ],
					"text" : "1"
				}

			}
, 			{
				"box" : 				{
					"id" : "obj-149",
					"maxclass" : "comment",
					"numinlets" : 1,
					"numoutlets" : 0,
					"patching_rect" : [ 555.0, 276.0, 150.0, 20.0 ],
					"presentation" : 1,
					"presentation_rect" : [ 530.666666666666742, 248.0, 19.0, 20.0 ],
					"text" : "0"
				}

			}
, 			{
				"box" : 				{
					"id" : "obj-145",
					"maxclass" : "button",
					"numinlets" : 1,
					"numoutlets" : 1,
					"outlettype" : [ "bang" ],
					"parameter_enable" : 0,
					"patching_rect" : [ 1245.666666666666742, 4.0, 24.0, 24.0 ],
					"presentation" : 1,
					"presentation_rect" : [ 504.666666666666742, 222.0, 24.0, 24.0 ]
				}

			}
, 			{
				"box" : 				{
					"id" : "obj-143",
					"maxclass" : "comment",
					"numinlets" : 1,
					"numoutlets" : 0,
					"patching_rect" : [ 803.0, 475.0, 150.0, 20.0 ],
					"presentation" : 1,
					"presentation_rect" : [ 791.0, 496.993943983868121, 150.0, 20.0 ],
					"text" : "Latent vector values"
				}

			}
, 			{
				"box" : 				{
					"id" : "obj-141",
					"maxclass" : "scope~",
					"numinlets" : 2,
					"numoutlets" : 0,
					"patching_rect" : [ 73.0, 550.0, 130.0, 130.0 ],
					"presentation" : 1,
					"presentation_rect" : [ 791.0, 518.993943983868121, 492.0, 289.920692875513282 ]
				}

			}
, 			{
				"box" : 				{
					"attr" : "setmode",
					"id" : "obj-140",
					"maxclass" : "attrui",
					"numinlets" : 1,
					"numoutlets" : 1,
					"outlettype" : [ "" ],
					"parameter_enable" : 0,
					"patching_rect" : [ 494.0, 838.0, 150.0, 22.0 ],
					"presentation" : 1,
					"presentation_rect" : [ 791.0, 412.0, 221.0, 22.0 ]
				}

			}
, 			{
				"box" : 				{
					"id" : "obj-134",
					"maxclass" : "comment",
					"numinlets" : 1,
					"numoutlets" : 0,
					"patching_rect" : [ 764.0, 59.0, 150.0, 20.0 ],
					"presentation" : 1,
					"presentation_rect" : [ 791.0, 74.0, 150.0, 20.0 ],
					"text" : "Custom envelope"
				}

			}
, 			{
				"box" : 				{
					"allowdrag" : 0,
					"beats" : 1,
					"buffername" : "custom",
					"clipdraw" : 1,
					"id" : "obj-132",
					"maxclass" : "waveform~",
					"numinlets" : 5,
					"numoutlets" : 6,
					"outlettype" : [ "float", "float", "float", "float", "list", "" ],
					"patching_rect" : [ 494.0, 905.0, 256.0, 256.0 ],
					"presentation" : 1,
					"presentation_rect" : [ 791.0, 96.0, 500.0, 300.0 ],
					"setmode" : 4
				}

			}
, 			{
				"box" : 				{
					"id" : "obj-131",
					"maxclass" : "newobj",
					"numinlets" : 1,
					"numoutlets" : 2,
					"outlettype" : [ "float", "bang" ],
					"patching_rect" : [ 196.0, 32.0, 196.0, 22.0 ],
					"text" : "buffer~ custom 1 1 @samps 16384"
				}

			}
, 			{
				"box" : 				{
					"id" : "obj-125",
					"maxclass" : "button",
					"numinlets" : 1,
					"numoutlets" : 1,
					"outlettype" : [ "bang" ],
					"parameter_enable" : 0,
					"patching_rect" : [ 949.0, 767.5, 24.0, 24.0 ],
					"presentation" : 1,
					"presentation_rect" : [ 504.666666666666742, 678.0, 24.0, 24.0 ]
				}

			}
, 			{
				"box" : 				{
					"id" : "obj-126",
					"maxclass" : "message",
					"numinlets" : 2,
					"numoutlets" : 1,
					"outlettype" : [ "" ],
					"patching_rect" : [ 949.0, 795.5, 85.0, 22.0 ],
					"text" : "0 0 0 0 0 0 0 0"
				}

			}
, 			{
				"box" : 				{
					"id" : "obj-122",
					"maxclass" : "button",
					"numinlets" : 1,
					"numoutlets" : 1,
					"outlettype" : [ "bang" ],
					"parameter_enable" : 0,
					"patching_rect" : [ 1496.0, 445.0, 24.0, 24.0 ],
					"presentation" : 1,
					"presentation_rect" : [ 234.0, 679.0, 24.0, 24.0 ]
				}

			}
, 			{
				"box" : 				{
					"id" : "obj-123",
					"maxclass" : "message",
					"numinlets" : 2,
					"numoutlets" : 1,
					"outlettype" : [ "" ],
					"patching_rect" : [ 1496.0, 473.0, 85.0, 22.0 ],
					"text" : "0 0 0 0 0 0 0 0"
				}

			}
, 			{
				"box" : 				{
					"id" : "obj-118",
					"maxclass" : "button",
					"numinlets" : 1,
					"numoutlets" : 1,
					"outlettype" : [ "bang" ],
					"parameter_enable" : 0,
					"patching_rect" : [ 1457.0, 4.0, 24.0, 24.0 ],
					"presentation" : 1,
					"presentation_rect" : [ 504.666666666666742, 455.0, 24.0, 24.0 ]
				}

			}
, 			{
				"box" : 				{
					"id" : "obj-121",
					"maxclass" : "message",
					"numinlets" : 2,
					"numoutlets" : 1,
					"outlettype" : [ "" ],
					"patching_rect" : [ 1457.0, 32.0, 85.0, 22.0 ],
					"text" : "0 0 0 0 0 0 0 0"
				}

			}
, 			{
				"box" : 				{
					"id" : "obj-116",
					"maxclass" : "button",
					"numinlets" : 1,
					"numoutlets" : 1,
					"outlettype" : [ "bang" ],
					"parameter_enable" : 0,
					"patching_rect" : [ 1206.0, 4.0, 24.0, 24.0 ],
					"presentation" : 1,
					"presentation_rect" : [ 504.666666666666742, 248.0, 24.0, 24.0 ]
				}

			}
, 			{
				"box" : 				{
					"id" : "obj-117",
					"maxclass" : "message",
					"numinlets" : 2,
					"numoutlets" : 1,
					"outlettype" : [ "" ],
					"patching_rect" : [ 1135.5, 32.0, 85.0, 22.0 ],
					"text" : "0 0 0 0 0 0 0 0"
				}

			}
, 			{
				"box" : 				{
					"id" : "obj-114",
					"maxclass" : "button",
					"numinlets" : 1,
					"numoutlets" : 1,
					"outlettype" : [ "bang" ],
					"parameter_enable" : 0,
					"patching_rect" : [ 918.0, 4.0, 24.0, 24.0 ],
					"presentation" : 1,
					"presentation_rect" : [ 234.0, 455.0, 24.0, 24.0 ]
				}

			}
, 			{
				"box" : 				{
					"id" : "obj-115",
					"maxclass" : "message",
					"numinlets" : 2,
					"numoutlets" : 1,
					"outlettype" : [ "" ],
					"patching_rect" : [ 918.0, 32.0, 85.0, 22.0 ],
					"text" : "0 0 0 0 0 0 0 0"
				}

			}
, 			{
				"box" : 				{
					"id" : "obj-113",
					"maxclass" : "button",
					"numinlets" : 1,
					"numoutlets" : 1,
					"outlettype" : [ "bang" ],
					"parameter_enable" : 0,
					"patching_rect" : [ 649.0, 4.0, 24.0, 24.0 ],
					"presentation" : 1,
					"presentation_rect" : [ 234.0, 248.0, 24.0, 24.0 ]
				}

			}
, 			{
				"box" : 				{
					"id" : "obj-111",
					"maxclass" : "message",
					"numinlets" : 2,
					"numoutlets" : 1,
					"outlettype" : [ "" ],
					"patching_rect" : [ 582.0, 37.0, 85.0, 22.0 ],
					"text" : "0 0 0 0 0 0 0 0"
				}

			}
, 			{
				"box" : 				{
					"id" : "obj-109",
					"maxclass" : "comment",
					"numinlets" : 1,
					"numoutlets" : 0,
					"patching_rect" : [ 582.0, 251.5, 150.0, 20.0 ],
					"presentation" : 1,
					"presentation_rect" : [ 586.0, 265.122104168923897, 147.0, 20.0 ],
					"text" : "Feedback"
				}

			}
, 			{
				"box" : 				{
					"id" : "obj-108",
					"maxclass" : "comment",
					"numinlets" : 1,
					"numoutlets" : 0,
					"patching_rect" : [ 622.0, 462.0, 150.0, 20.0 ],
					"presentation" : 1,
					"presentation_rect" : [ 586.0, 518.993943983868121, 150.0, 20.0 ],
					"text" : "Reverb"
				}

			}
, 			{
				"box" : 				{
					"attr" : "pspread",
					"id" : "obj-106",
					"maxclass" : "attrui",
					"numinlets" : 1,
					"numoutlets" : 1,
					"outlettype" : [ "" ],
					"parameter_enable" : 0,
					"patching_rect" : [ 600.0, 592.0, 150.0, 22.0 ],
					"presentation" : 1,
					"presentation_rect" : [ 586.0, 658.568565645798344, 150.0, 22.0 ]
				}

			}
, 			{
				"box" : 				{
					"attr" : "damp",
					"id" : "obj-105",
					"maxclass" : "attrui",
					"numinlets" : 1,
					"numoutlets" : 1,
					"outlettype" : [ "" ],
					"parameter_enable" : 0,
					"patching_rect" : [ 600.0, 564.0, 150.0, 22.0 ],
					"presentation" : 1,
					"presentation_rect" : [ 586.0, 619.377025091821679, 150.0, 22.0 ]
				}

			}
, 			{
				"box" : 				{
					"attr" : "fb2",
					"id" : "obj-104",
					"maxclass" : "attrui",
					"numinlets" : 1,
					"numoutlets" : 1,
					"outlettype" : [ "" ],
					"parameter_enable" : 0,
					"patching_rect" : [ 600.0, 540.0, 150.0, 22.0 ],
					"presentation" : 1,
					"presentation_rect" : [ 586.0, 580.185484537844786, 150.0, 22.0 ]
				}

			}
, 			{
				"box" : 				{
					"attr" : "fb1",
					"id" : "obj-103",
					"maxclass" : "attrui",
					"numinlets" : 1,
					"numoutlets" : 1,
					"outlettype" : [ "" ],
					"parameter_enable" : 0,
					"patching_rect" : [ 600.0, 511.0, 150.0, 22.0 ],
					"presentation" : 1,
					"presentation_rect" : [ 586.0, 540.993943983868121, 150.0, 22.0 ]
				}

			}
, 			{
				"box" : 				{
					"id" : "obj-96",
					"linecount" : 13,
					"maxclass" : "message",
					"numinlets" : 2,
					"numoutlets" : 1,
					"outlettype" : [ "" ],
					"patching_rect" : [ 899.0, 256.0, 55.0, 183.0 ],
					"presentation" : 1,
					"presentation_linecount" : 2,
					"presentation_rect" : [ 11.0, 455.0, 222.0, 35.0 ],
					"text" : "0.44 0.206667 0.686667 0.606667 0.066667 0.193333 0.153333 0.1"
				}

			}
, 			{
				"box" : 				{
					"id" : "obj-89",
					"maxclass" : "comment",
					"numinlets" : 1,
					"numoutlets" : 0,
					"patching_rect" : [ 618.0, 125.0, 150.0, 20.0 ],
					"presentation" : 1,
					"presentation_rect" : [ 586.0, 74.0, 63.0, 20.0 ],
					"text" : "Waveform"
				}

			}
, 			{
				"box" : 				{
					"id" : "obj-75",
					"items" : [ "triangle", ",", "rect", ",", "pulse", ",", "custom" ],
					"maxclass" : "umenu",
					"numinlets" : 1,
					"numoutlets" : 3,
					"outlettype" : [ "int", "", "" ],
					"parameter_enable" : 0,
					"patching_rect" : [ 71.0, 146.0, 100.0, 22.0 ],
					"presentation" : 1,
					"presentation_rect" : [ 586.0, 96.000000000000028, 100.0, 22.0 ]
				}

			}
, 			{
				"box" : 				{
					"id" : "obj-72",
					"linecount" : 3,
					"maxclass" : "comment",
					"numinlets" : 1,
					"numoutlets" : 0,
					"patching_rect" : [ 305.666666666666686, 481.0, 40.0, 47.0 ],
					"presentation" : 1,
					"presentation_rect" : [ 281.666666666666686, 503.0, 91.0, 20.0 ],
					"text" : "Random Scale"
				}

			}
, 			{
				"box" : 				{
					"id" : "obj-71",
					"maxclass" : "comment",
					"numinlets" : 1,
					"numoutlets" : 0,
					"patching_rect" : [ 104.0, 473.0, 150.0, 20.0 ],
					"presentation" : 1,
					"presentation_rect" : [ 11.0, 503.0, 150.0, 20.0 ],
					"text" : "Random Freq"
				}

			}
, 			{
				"box" : 				{
					"id" : "obj-68",
					"maxclass" : "comment",
					"numinlets" : 1,
					"numoutlets" : 0,
					"patching_rect" : [ 374.0, 370.0, 150.0, 20.0 ],
					"presentation" : 1,
					"presentation_rect" : [ 586.0, 137.736062269420813, 63.0, 20.0 ],
					"text" : "Clip mode"
				}

			}
, 			{
				"box" : 				{
					"id" : "obj-39",
					"maxclass" : "newobj",
					"numinlets" : 1,
					"numoutlets" : 1,
					"outlettype" : [ "multichannelsignal" ],
					"patching_rect" : [ 934.0, 693.0, 154.0, 22.0 ],
					"text" : "mcs.nn~ break_2.4 encode"
				}

			}
, 			{
				"box" : 				{
					"id" : "obj-33",
					"maxclass" : "newobj",
					"numinlets" : 1,
					"numoutlets" : 2,
					"outlettype" : [ "signal", "signal" ],
					"patching_rect" : [ 928.0, 651.0, 74.0, 22.0 ],
					"text" : "mc.unpack~"
				}

			}
, 			{
				"box" : 				{
					"id" : "obj-32",
					"lastchannelcount" : 2,
					"maxclass" : "mc.live.gain~",
					"numinlets" : 1,
					"numoutlets" : 4,
					"orientation" : 1,
					"outlettype" : [ "multichannelsignal", "", "float", "list" ],
					"parameter_enable" : 1,
					"patching_rect" : [ 395.0, 756.0, 136.0, 47.0 ],
					"presentation" : 1,
					"presentation_rect" : [ 586.0, 697.760106199775123, 150.0, 47.0 ],
					"saved_attribute_attributes" : 					{
						"valueof" : 						{
							"parameter_initial" : [ 0.0 ],
							"parameter_initial_enable" : 1,
							"parameter_linknames" : 1,
							"parameter_longname" : "Reverb",
							"parameter_mmax" : 6.0,
							"parameter_mmin" : -70.0,
							"parameter_shortname" : "Reverb",
							"parameter_type" : 0,
							"parameter_unitstyle" : 4
						}

					}
,
					"varname" : "Reverb"
				}

			}
, 			{
				"box" : 				{
					"id" : "obj-29",
					"maxclass" : "newobj",
					"numinlets" : 2,
					"numoutlets" : 1,
					"outlettype" : [ "multichannelsignal" ],
					"patching_rect" : [ 395.0, 586.0, 60.0, 22.0 ],
					"text" : "mc.pack~"
				}

			}
, 			{
				"box" : 				{
					"fontface" : 0,
					"fontname" : "Arial",
					"fontsize" : 12.0,
					"id" : "obj-28",
					"maxclass" : "number~",
					"mode" : 2,
					"numinlets" : 2,
					"numoutlets" : 2,
					"outlettype" : [ "signal", "float" ],
					"patching_rect" : [ 1166.0, 775.0, 56.0, 22.0 ],
					"sig" : 0.0
				}

			}
, 			{
				"box" : 				{
					"id" : "obj-16",
					"maxclass" : "message",
					"numinlets" : 2,
					"numoutlets" : 1,
					"outlettype" : [ "" ],
					"patching_rect" : [ 991.0, 1138.0, 87.0, 22.0 ],
					"text" : "setvalue $1 $2"
				}

			}
, 			{
				"box" : 				{
					"id" : "obj-22",
					"maxclass" : "newobj",
					"numinlets" : 1,
					"numoutlets" : 1,
					"outlettype" : [ "list" ],
					"patching_rect" : [ 991.0, 1100.0, 66.0, 22.0 ],
					"text" : "listfunnel 1"
				}

			}
, 			{
				"box" : 				{
					"candycane" : 8,
					"contdata" : 1,
					"id" : "obj-26",
					"maxclass" : "multislider",
					"numinlets" : 1,
					"numoutlets" : 2,
					"outlettype" : [ "", "" ],
					"parameter_enable" : 0,
					"patching_rect" : [ 991.0, 832.0, 221.0, 150.0 ],
					"presentation" : 1,
					"presentation_rect" : [ 281.666666666666686, 528.0, 221.0, 150.0 ],
					"setminmax" : [ -3.0, 3.0 ],
					"setstyle" : 1,
					"size" : 8
				}

			}
, 			{
				"box" : 				{
					"id" : "obj-14",
					"maxclass" : "newobj",
					"numinlets" : 2,
					"numoutlets" : 1,
					"outlettype" : [ "multichannelsignal" ],
					"patching_rect" : [ 1097.0, 749.0, 53.0, 22.0 ],
					"text" : "mc.*~ 1."
				}

			}
, 			{
				"box" : 				{
					"id" : "obj-9",
					"maxclass" : "message",
					"numinlets" : 2,
					"numoutlets" : 1,
					"outlettype" : [ "" ],
					"patching_rect" : [ 1292.0, 758.0, 87.0, 22.0 ],
					"text" : "setvalue $1 $2"
				}

			}
, 			{
				"box" : 				{
					"id" : "obj-10",
					"maxclass" : "newobj",
					"numinlets" : 1,
					"numoutlets" : 1,
					"outlettype" : [ "list" ],
					"patching_rect" : [ 1292.0, 720.0, 66.0, 22.0 ],
					"text" : "listfunnel 1"
				}

			}
, 			{
				"box" : 				{
					"candycane" : 8,
					"contdata" : 1,
					"id" : "obj-11",
					"maxclass" : "multislider",
					"numinlets" : 1,
					"numoutlets" : 2,
					"outlettype" : [ "", "" ],
					"parameter_enable" : 1,
					"patching_rect" : [ 1292.0, 540.0, 221.0, 150.0 ],
					"presentation" : 1,
					"presentation_rect" : [ 11.0, 528.0, 221.0, 150.0 ],
					"saved_attribute_attributes" : 					{
						"valueof" : 						{
							"parameter_invisible" : 1,
							"parameter_longname" : "multislider[2]",
							"parameter_shortname" : "multislider",
							"parameter_type" : 3
						}

					}
,
					"setminmax" : [ 0.0, 20.0 ],
					"setstyle" : 1,
					"settype" : 0,
					"size" : 8,
					"varname" : "multislider[2]"
				}

			}
, 			{
				"box" : 				{
					"id" : "obj-8",
					"maxclass" : "newobj",
					"numinlets" : 1,
					"numoutlets" : 1,
					"outlettype" : [ "multichannelsignal" ],
					"patching_rect" : [ 1110.0, 604.0, 126.0, 22.0 ],
					"text" : "mc.rand~ 1 @chans 8"
				}

			}
, 			{
				"box" : 				{
					"id" : "obj-7",
					"lastchannelcount" : 8,
					"maxclass" : "mc.live.gain~",
					"numinlets" : 1,
					"numoutlets" : 4,
					"orientation" : 1,
					"outlettype" : [ "multichannelsignal", "", "float", "list" ],
					"parameter_enable" : 1,
					"patching_rect" : [ 802.0, 678.0, 136.0, 83.0 ],
					"presentation" : 1,
					"presentation_rect" : [ 586.0, 351.276634828530177, 136.0, 83.0 ],
					"saved_attribute_attributes" : 					{
						"valueof" : 						{
							"parameter_initial" : [ -12.0 ],
							"parameter_initial_enable" : 1,
							"parameter_linknames" : 1,
							"parameter_longname" : "Feedback Output",
							"parameter_mmax" : 6.0,
							"parameter_mmin" : -70.0,
							"parameter_shortname" : "Feedback Output",
							"parameter_type" : 0,
							"parameter_unitstyle" : 4
						}

					}
,
					"varname" : "Feedback Output"
				}

			}
, 			{
				"box" : 				{
					"id" : "obj-2",
					"lastchannelcount" : 2,
					"maxclass" : "mc.live.gain~",
					"numinlets" : 1,
					"numoutlets" : 4,
					"orientation" : 1,
					"outlettype" : [ "multichannelsignal", "", "float", "list" ],
					"parameter_enable" : 1,
					"patching_rect" : [ 922.0, 501.0, 136.0, 47.0 ],
					"presentation" : 1,
					"presentation_rect" : [ 586.0, 287.122104168923897, 136.0, 47.0 ],
					"saved_attribute_attributes" : 					{
						"valueof" : 						{
							"parameter_initial" : [ 0.0 ],
							"parameter_initial_enable" : 1,
							"parameter_linknames" : 1,
							"parameter_longname" : "Feedback Input",
							"parameter_mmax" : 6.0,
							"parameter_mmin" : -70.0,
							"parameter_shortname" : "Feedback Input",
							"parameter_type" : 0,
							"parameter_unitstyle" : 4
						}

					}
,
					"varname" : "Feedback Input"
				}

			}
, 			{
				"box" : 				{
					"id" : "obj-6",
					"maxclass" : "newobj",
					"numinlets" : 1,
					"numoutlets" : 1,
					"outlettype" : [ "multichannelsignal" ],
					"patching_rect" : [ 473.0, 620.0, 102.0, 22.0 ],
					"text" : "mc.gen~ freeverb"
				}

			}
, 			{
				"box" : 				{
					"attr" : "mode",
					"id" : "obj-3",
					"maxclass" : "attrui",
					"numinlets" : 1,
					"numoutlets" : 1,
					"outlettype" : [ "" ],
					"parameter_enable" : 0,
					"patching_rect" : [ 206.0, 418.0, 150.0, 22.0 ],
					"presentation" : 1,
					"presentation_rect" : [ 586.0, 159.736062269420756, 150.0, 22.0 ]
				}

			}
, 			{
				"box" : 				{
					"format" : 6,
					"id" : "obj-5",
					"maxclass" : "flonum",
					"numinlets" : 1,
					"numoutlets" : 2,
					"outlettype" : [ "", "bang" ],
					"parameter_enable" : 1,
					"patching_rect" : [ 550.0, 644.0, 50.0, 22.0 ],
					"presentation" : 1,
					"presentation_rect" : [ 586.0, 496.993943983868121, 50.0, 22.0 ],
					"saved_attribute_attributes" : 					{
						"valueof" : 						{
							"parameter_initial" : [ 10 ],
							"parameter_initial_enable" : 1,
							"parameter_invisible" : 1,
							"parameter_longname" : "number",
							"parameter_shortname" : "number",
							"parameter_type" : 3
						}

					}
,
					"varname" : "number"
				}

			}
, 			{
				"box" : 				{
					"id" : "obj-46",
					"maxclass" : "comment",
					"numinlets" : 1,
					"numoutlets" : 0,
					"patching_rect" : [ 781.0, 25.0, 67.0, 20.0 ],
					"presentation" : 1,
					"presentation_rect" : [ 11.0, 281.0, 67.0, 20.0 ],
					"text" : "Duty Cycle"
				}

			}
, 			{
				"box" : 				{
					"id" : "obj-45",
					"maxclass" : "comment",
					"numinlets" : 1,
					"numoutlets" : 0,
					"patching_rect" : [ 1328.0, 21.0, 40.0, 20.0 ],
					"presentation" : 1,
					"presentation_rect" : [ 281.666666666666686, 281.0, 40.0, 20.0 ],
					"text" : "Offset"
				}

			}
, 			{
				"box" : 				{
					"id" : "obj-42",
					"maxclass" : "comment",
					"numinlets" : 1,
					"numoutlets" : 0,
					"patching_rect" : [ 1034.0, 21.0, 44.0, 20.0 ],
					"presentation" : 1,
					"presentation_rect" : [ 281.666666666666686, 74.0, 44.0, 20.0 ],
					"text" : "Scale"
				}

			}
, 			{
				"box" : 				{
					"id" : "obj-41",
					"maxclass" : "comment",
					"numinlets" : 1,
					"numoutlets" : 0,
					"patching_rect" : [ 473.0, 21.0, 33.0, 20.0 ],
					"presentation" : 1,
					"presentation_rect" : [ 11.0, 74.0, 33.0, 20.0 ],
					"text" : "Freq"
				}

			}
, 			{
				"box" : 				{
					"id" : "obj-38",
					"maxclass" : "newobj",
					"numinlets" : 2,
					"numoutlets" : 1,
					"outlettype" : [ "multichannelsignal" ],
					"patching_rect" : [ 73.0, 435.0, 55.0, 22.0 ],
					"text" : "mc.+~ 0."
				}

			}
, 			{
				"box" : 				{
					"id" : "obj-35",
					"maxclass" : "message",
					"numinlets" : 2,
					"numoutlets" : 1,
					"outlettype" : [ "" ],
					"patching_rect" : [ 1285.0, 483.0, 87.0, 22.0 ],
					"text" : "setvalue $1 $2"
				}

			}
, 			{
				"box" : 				{
					"id" : "obj-36",
					"maxclass" : "newobj",
					"numinlets" : 1,
					"numoutlets" : 1,
					"outlettype" : [ "list" ],
					"patching_rect" : [ 1285.0, 445.0, 66.0, 22.0 ],
					"text" : "listfunnel 1"
				}

			}
, 			{
				"box" : 				{
					"candycane" : 8,
					"contdata" : 1,
					"id" : "obj-37",
					"maxclass" : "multislider",
					"numinlets" : 1,
					"numoutlets" : 2,
					"outlettype" : [ "", "" ],
					"parameter_enable" : 0,
					"patching_rect" : [ 1285.0, 72.0, 221.0, 150.0 ],
					"presentation" : 1,
					"presentation_rect" : [ 281.666666666666686, 303.0, 221.0, 150.0 ],
					"setminmax" : [ -3.0, 3.0 ],
					"setstyle" : 1,
					"size" : 8
				}

			}
, 			{
				"box" : 				{
					"id" : "obj-31",
					"maxclass" : "newobj",
					"numinlets" : 3,
					"numoutlets" : 1,
					"outlettype" : [ "multichannelsignal" ],
					"patching_rect" : [ 71.0, 481.0, 102.0, 22.0 ],
					"text" : "mc.pong~ 0 -3. 3."
				}

			}
, 			{
				"box" : 				{
					"id" : "obj-19",
					"maxclass" : "newobj",
					"numinlets" : 1,
					"numoutlets" : 1,
					"outlettype" : [ "multichannelsignal" ],
					"patching_rect" : [ 395.0, 701.0, 85.0, 22.0 ],
					"text" : "mc.tapout~ 10"
				}

			}
, 			{
				"box" : 				{
					"id" : "obj-18",
					"maxclass" : "newobj",
					"numinlets" : 1,
					"numoutlets" : 1,
					"outlettype" : [ "tapconnect" ],
					"patching_rect" : [ 395.0, 651.0, 91.0, 22.0 ],
					"text" : "mc.tapin~ 2048"
				}

			}
, 			{
				"box" : 				{
					"id" : "obj-17",
					"maxclass" : "newobj",
					"numinlets" : 1,
					"numoutlets" : 1,
					"outlettype" : [ "multichannelsignal" ],
					"patching_rect" : [ 753.0, 625.0, 154.0, 22.0 ],
					"text" : "mcs.nn~ break_2.4 encode"
				}

			}
, 			{
				"box" : 				{
					"id" : "obj-127",
					"maxclass" : "newobj",
					"numinlets" : 1,
					"numoutlets" : 1,
					"outlettype" : [ "multichannelsignal" ],
					"patching_rect" : [ 431.5, 525.0, 154.0, 22.0 ],
					"text" : "mcs.nn~ break_2.4 decode"
				}

			}
, 			{
				"box" : 				{
					"id" : "obj-124",
					"maxclass" : "mc.ezdac~",
					"numinlets" : 1,
					"numoutlets" : 0,
					"patching_rect" : [ 229.5, 843.0, 45.0, 45.0 ]
				}

			}
, 			{
				"box" : 				{
					"id" : "obj-120",
					"maxclass" : "newobj",
					"numinlets" : 2,
					"numoutlets" : 1,
					"outlettype" : [ "multichannelsignal" ],
					"patching_rect" : [ 229.5, 615.0, 68.0, 22.0 ],
					"text" : "mc.stereo~"
				}

			}
, 			{
				"box" : 				{
					"id" : "obj-119",
					"maxclass" : "newobj",
					"numinlets" : 2,
					"numoutlets" : 1,
					"outlettype" : [ "multichannelsignal" ],
					"patching_rect" : [ 229.5, 580.0, 70.0, 22.0 ],
					"text" : "mc.pack~ 2"
				}

			}
, 			{
				"box" : 				{
					"id" : "obj-94",
					"maxclass" : "message",
					"numinlets" : 2,
					"numoutlets" : 1,
					"outlettype" : [ "" ],
					"patching_rect" : [ 781.0, 290.0, 87.0, 22.0 ],
					"text" : "setvalue $1 $2"
				}

			}
, 			{
				"box" : 				{
					"id" : "obj-95",
					"maxclass" : "newobj",
					"numinlets" : 1,
					"numoutlets" : 1,
					"outlettype" : [ "list" ],
					"patching_rect" : [ 781.0, 252.0, 66.0, 22.0 ],
					"text" : "listfunnel 1"
				}

			}
, 			{
				"box" : 				{
					"candycane" : 8,
					"contdata" : 1,
					"id" : "obj-92",
					"maxclass" : "multislider",
					"numinlets" : 1,
					"numoutlets" : 2,
					"outlettype" : [ "", "" ],
					"parameter_enable" : 1,
					"patching_rect" : [ 781.0, 72.0, 221.0, 150.0 ],
					"presentation" : 1,
					"presentation_rect" : [ 11.0, 303.0, 221.0, 150.0 ],
					"saved_attribute_attributes" : 					{
						"valueof" : 						{
							"parameter_invisible" : 1,
							"parameter_longname" : "multislider[1]",
							"parameter_shortname" : "multislider",
							"parameter_type" : 3
						}

					}
,
					"setminmax" : [ 0.0, 1.0 ],
					"setstyle" : 1,
					"size" : 8,
					"varname" : "multislider[1]"
				}

			}
, 			{
				"box" : 				{
					"id" : "obj-57",
					"lastchannelcount" : 2,
					"maxclass" : "mc.live.gain~",
					"numinlets" : 1,
					"numoutlets" : 4,
					"orientation" : 1,
					"outlettype" : [ "multichannelsignal", "", "float", "list" ],
					"parameter_enable" : 1,
					"patching_rect" : [ 229.5, 670.0, 136.0, 47.0 ],
					"presentation" : 1,
					"presentation_rect" : [ 586.0, 761.914636859381403, 150.0, 47.0 ],
					"saved_attribute_attributes" : 					{
						"valueof" : 						{
							"parameter_linknames" : 1,
							"parameter_longname" : "Output",
							"parameter_mmax" : 6.0,
							"parameter_mmin" : -70.0,
							"parameter_shortname" : "Output",
							"parameter_type" : 0,
							"parameter_unitstyle" : 4
						}

					}
,
					"varname" : "Output"
				}

			}
, 			{
				"box" : 				{
					"id" : "obj-70",
					"maxclass" : "newobj",
					"numinlets" : 2,
					"numoutlets" : 1,
					"outlettype" : [ "multichannelsignal" ],
					"patching_rect" : [ 73.0, 345.0, 53.0, 22.0 ],
					"text" : "mc.*~ 1."
				}

			}
, 			{
				"box" : 				{
					"id" : "obj-62",
					"maxclass" : "message",
					"numinlets" : 2,
					"numoutlets" : 1,
					"outlettype" : [ "" ],
					"patching_rect" : [ 1034.0, 368.0, 87.0, 22.0 ],
					"text" : "setvalue $1 $2"
				}

			}
, 			{
				"box" : 				{
					"id" : "obj-63",
					"maxclass" : "newobj",
					"numinlets" : 1,
					"numoutlets" : 1,
					"outlettype" : [ "list" ],
					"patching_rect" : [ 1034.0, 330.0, 66.0, 22.0 ],
					"text" : "listfunnel 1"
				}

			}
, 			{
				"box" : 				{
					"candycane" : 8,
					"contdata" : 1,
					"id" : "obj-64",
					"maxclass" : "multislider",
					"numinlets" : 1,
					"numoutlets" : 2,
					"outlettype" : [ "", "" ],
					"parameter_enable" : 0,
					"patching_rect" : [ 1034.0, 62.0, 221.0, 150.0 ],
					"presentation" : 1,
					"presentation_rect" : [ 281.666666666666686, 96.0, 221.0, 150.0 ],
					"setminmax" : [ -3.0, 3.0 ],
					"setstyle" : 1,
					"size" : 8
				}

			}
, 			{
				"box" : 				{
					"id" : "obj-48",
					"maxclass" : "message",
					"numinlets" : 2,
					"numoutlets" : 1,
					"outlettype" : [ "" ],
					"patching_rect" : [ 473.0, 290.0, 87.0, 22.0 ],
					"text" : "setvalue $1 $2"
				}

			}
, 			{
				"box" : 				{
					"id" : "obj-44",
					"maxclass" : "newobj",
					"numinlets" : 1,
					"numoutlets" : 1,
					"outlettype" : [ "list" ],
					"patching_rect" : [ 473.0, 252.0, 66.0, 22.0 ],
					"text" : "listfunnel 1"
				}

			}
, 			{
				"box" : 				{
					"candycane" : 8,
					"contdata" : 1,
					"id" : "obj-43",
					"maxclass" : "multislider",
					"numinlets" : 1,
					"numoutlets" : 2,
					"outlettype" : [ "", "" ],
					"parameter_enable" : 1,
					"patching_rect" : [ 473.0, 72.0, 221.0, 150.0 ],
					"presentation" : 1,
					"presentation_rect" : [ 11.0, 96.0, 221.0, 150.0 ],
					"saved_attribute_attributes" : 					{
						"valueof" : 						{
							"parameter_invisible" : 1,
							"parameter_longname" : "multislider",
							"parameter_shortname" : "multislider",
							"parameter_type" : 3
						}

					}
,
					"setminmax" : [ 0.0, 20.0 ],
					"setstyle" : 1,
					"settype" : 0,
					"size" : 8,
					"varname" : "multislider"
				}

			}
, 			{
				"box" : 				{
					"id" : "obj-1",
					"maxclass" : "newobj",
					"numinlets" : 1,
					"numoutlets" : 1,
					"outlettype" : [ "multichannelsignal" ],
					"patching_rect" : [ 229.5, 525.0, 154.0, 22.0 ],
					"text" : "mcs.nn~ break_2.4 decode"
				}

			}
 ],
		"lines" : [ 			{
				"patchline" : 				{
					"destination" : [ "obj-119", 0 ],
					"order" : 1,
					"source" : [ "obj-1", 0 ]
				}

			}
, 			{
				"patchline" : 				{
					"destination" : [ "obj-29", 0 ],
					"order" : 0,
					"source" : [ "obj-1", 0 ]
				}

			}
, 			{
				"patchline" : 				{
					"destination" : [ "obj-9", 0 ],
					"source" : [ "obj-10", 0 ]
				}

			}
, 			{
				"patchline" : 				{
					"destination" : [ "obj-6", 0 ],
					"source" : [ "obj-103", 0 ]
				}

			}
, 			{
				"patchline" : 				{
					"destination" : [ "obj-6", 0 ],
					"source" : [ "obj-104", 0 ]
				}

			}
, 			{
				"patchline" : 				{
					"destination" : [ "obj-6", 0 ],
					"source" : [ "obj-105", 0 ]
				}

			}
, 			{
				"patchline" : 				{
					"destination" : [ "obj-6", 0 ],
					"source" : [ "obj-106", 0 ]
				}

			}
, 			{
				"patchline" : 				{
					"destination" : [ "obj-169", 0 ],
					"source" : [ "obj-11", 0 ]
				}

			}
, 			{
				"patchline" : 				{
					"destination" : [ "obj-43", 0 ],
					"source" : [ "obj-111", 0 ]
				}

			}
, 			{
				"patchline" : 				{
					"destination" : [ "obj-111", 0 ],
					"source" : [ "obj-113", 0 ]
				}

			}
, 			{
				"patchline" : 				{
					"destination" : [ "obj-115", 0 ],
					"source" : [ "obj-114", 0 ]
				}

			}
, 			{
				"patchline" : 				{
					"destination" : [ "obj-92", 0 ],
					"source" : [ "obj-115", 0 ]
				}

			}
, 			{
				"patchline" : 				{
					"destination" : [ "obj-117", 0 ],
					"source" : [ "obj-116", 0 ]
				}

			}
, 			{
				"patchline" : 				{
					"destination" : [ "obj-64", 0 ],
					"source" : [ "obj-117", 0 ]
				}

			}
, 			{
				"patchline" : 				{
					"destination" : [ "obj-121", 0 ],
					"source" : [ "obj-118", 0 ]
				}

			}
, 			{
				"patchline" : 				{
					"destination" : [ "obj-120", 0 ],
					"source" : [ "obj-119", 0 ]
				}

			}
, 			{
				"patchline" : 				{
					"destination" : [ "obj-13", 0 ],
					"source" : [ "obj-120", 0 ]
				}

			}
, 			{
				"patchline" : 				{
					"destination" : [ "obj-37", 0 ],
					"source" : [ "obj-121", 0 ]
				}

			}
, 			{
				"patchline" : 				{
					"destination" : [ "obj-123", 0 ],
					"source" : [ "obj-122", 0 ]
				}

			}
, 			{
				"patchline" : 				{
					"destination" : [ "obj-11", 0 ],
					"source" : [ "obj-123", 0 ]
				}

			}
, 			{
				"patchline" : 				{
					"destination" : [ "obj-126", 0 ],
					"source" : [ "obj-125", 0 ]
				}

			}
, 			{
				"patchline" : 				{
					"destination" : [ "obj-26", 0 ],
					"source" : [ "obj-126", 0 ]
				}

			}
, 			{
				"patchline" : 				{
					"destination" : [ "obj-119", 1 ],
					"order" : 1,
					"source" : [ "obj-127", 0 ]
				}

			}
, 			{
				"patchline" : 				{
					"destination" : [ "obj-29", 1 ],
					"order" : 0,
					"source" : [ "obj-127", 0 ]
				}

			}
, 			{
				"patchline" : 				{
					"destination" : [ "obj-57", 0 ],
					"source" : [ "obj-13", 0 ]
				}

			}
, 			{
				"patchline" : 				{
					"destination" : [ "obj-38", 0 ],
					"source" : [ "obj-14", 0 ]
				}

			}
, 			{
				"patchline" : 				{
					"destination" : [ "obj-132", 0 ],
					"source" : [ "obj-140", 0 ]
				}

			}
, 			{
				"patchline" : 				{
					"destination" : [ "obj-155", 0 ],
					"source" : [ "obj-145", 0 ]
				}

			}
, 			{
				"patchline" : 				{
					"destination" : [ "obj-4", 0 ],
					"source" : [ "obj-153", 0 ]
				}

			}
, 			{
				"patchline" : 				{
					"destination" : [ "obj-64", 0 ],
					"source" : [ "obj-155", 0 ]
				}

			}
, 			{
				"patchline" : 				{
					"destination" : [ "obj-14", 1 ],
					"source" : [ "obj-16", 0 ]
				}

			}
, 			{
				"patchline" : 				{
					"destination" : [ "obj-10", 0 ],
					"order" : 1,
					"source" : [ "obj-169", 0 ]
				}

			}
, 			{
				"patchline" : 				{
					"destination" : [ "obj-20", 1 ],
					"order" : 0,
					"source" : [ "obj-169", 0 ]
				}

			}
, 			{
				"patchline" : 				{
					"destination" : [ "obj-7", 0 ],
					"source" : [ "obj-17", 0 ]
				}

			}
, 			{
				"patchline" : 				{
					"destination" : [ "obj-19", 0 ],
					"source" : [ "obj-18", 0 ]
				}

			}
, 			{
				"patchline" : 				{
					"destination" : [ "obj-2", 0 ],
					"midpoints" : [ 404.5, 774.0, 559.0, 774.0, 559.0, 487.0, 931.5, 487.0 ],
					"order" : 0,
					"source" : [ "obj-19", 0 ]
				}

			}
, 			{
				"patchline" : 				{
					"destination" : [ "obj-32", 0 ],
					"order" : 1,
					"source" : [ "obj-19", 0 ]
				}

			}
, 			{
				"patchline" : 				{
					"destination" : [ "obj-33", 0 ],
					"source" : [ "obj-2", 0 ]
				}

			}
, 			{
				"patchline" : 				{
					"destination" : [ "obj-55", 0 ],
					"source" : [ "obj-21", 0 ]
				}

			}
, 			{
				"patchline" : 				{
					"destination" : [ "obj-16", 0 ],
					"source" : [ "obj-22", 0 ]
				}

			}
, 			{
				"patchline" : 				{
					"destination" : [ "obj-60", 0 ],
					"source" : [ "obj-23", 0 ]
				}

			}
, 			{
				"patchline" : 				{
					"destination" : [ "obj-15", 1 ],
					"order" : 0,
					"source" : [ "obj-26", 0 ]
				}

			}
, 			{
				"patchline" : 				{
					"destination" : [ "obj-22", 0 ],
					"order" : 1,
					"source" : [ "obj-26", 0 ]
				}

			}
, 			{
				"patchline" : 				{
					"destination" : [ "obj-18", 0 ],
					"order" : 1,
					"source" : [ "obj-29", 0 ]
				}

			}
, 			{
				"patchline" : 				{
					"destination" : [ "obj-6", 0 ],
					"order" : 0,
					"source" : [ "obj-29", 0 ]
				}

			}
, 			{
				"patchline" : 				{
					"destination" : [ "obj-31", 0 ],
					"source" : [ "obj-3", 0 ]
				}

			}
, 			{
				"patchline" : 				{
					"destination" : [ "obj-1", 0 ],
					"order" : 1,
					"source" : [ "obj-31", 0 ]
				}

			}
, 			{
				"patchline" : 				{
					"destination" : [ "obj-127", 0 ],
					"order" : 0,
					"source" : [ "obj-31", 0 ]
				}

			}
, 			{
				"patchline" : 				{
					"destination" : [ "obj-141", 0 ],
					"order" : 2,
					"source" : [ "obj-31", 0 ]
				}

			}
, 			{
				"patchline" : 				{
					"destination" : [ "obj-120", 0 ],
					"source" : [ "obj-32", 0 ]
				}

			}
, 			{
				"patchline" : 				{
					"destination" : [ "obj-17", 0 ],
					"source" : [ "obj-33", 0 ]
				}

			}
, 			{
				"patchline" : 				{
					"destination" : [ "obj-39", 0 ],
					"source" : [ "obj-33", 1 ]
				}

			}
, 			{
				"patchline" : 				{
					"destination" : [ "obj-38", 1 ],
					"source" : [ "obj-35", 0 ]
				}

			}
, 			{
				"patchline" : 				{
					"destination" : [ "obj-35", 0 ],
					"source" : [ "obj-36", 0 ]
				}

			}
, 			{
				"patchline" : 				{
					"destination" : [ "obj-23", 1 ],
					"order" : 0,
					"source" : [ "obj-37", 0 ]
				}

			}
, 			{
				"patchline" : 				{
					"destination" : [ "obj-36", 0 ],
					"order" : 1,
					"source" : [ "obj-37", 0 ]
				}

			}
, 			{
				"patchline" : 				{
					"destination" : [ "obj-31", 0 ],
					"source" : [ "obj-38", 0 ]
				}

			}
, 			{
				"patchline" : 				{
					"destination" : [ "obj-7", 0 ],
					"source" : [ "obj-39", 0 ]
				}

			}
, 			{
				"patchline" : 				{
					"destination" : [ "obj-26", 0 ],
					"source" : [ "obj-4", 0 ]
				}

			}
, 			{
				"patchline" : 				{
					"destination" : [ "obj-24", 1 ],
					"order" : 0,
					"source" : [ "obj-43", 0 ]
				}

			}
, 			{
				"patchline" : 				{
					"destination" : [ "obj-44", 0 ],
					"order" : 1,
					"source" : [ "obj-43", 0 ]
				}

			}
, 			{
				"patchline" : 				{
					"destination" : [ "obj-48", 0 ],
					"source" : [ "obj-44", 0 ]
				}

			}
, 			{
				"patchline" : 				{
					"destination" : [ "obj-69", 1 ],
					"source" : [ "obj-48", 0 ]
				}

			}
, 			{
				"patchline" : 				{
					"destination" : [ "obj-19", 0 ],
					"source" : [ "obj-5", 0 ]
				}

			}
, 			{
				"patchline" : 				{
					"destination" : [ "obj-64", 0 ],
					"source" : [ "obj-55", 0 ]
				}

			}
, 			{
				"patchline" : 				{
					"destination" : [ "obj-21", 0 ],
					"source" : [ "obj-56", 0 ]
				}

			}
, 			{
				"patchline" : 				{
					"destination" : [ "obj-124", 0 ],
					"source" : [ "obj-57", 0 ]
				}

			}
, 			{
				"patchline" : 				{
					"destination" : [ "obj-23", 0 ],
					"source" : [ "obj-59", 0 ]
				}

			}
, 			{
				"patchline" : 				{
					"destination" : [ "obj-18", 0 ],
					"source" : [ "obj-6", 0 ]
				}

			}
, 			{
				"patchline" : 				{
					"destination" : [ "obj-37", 0 ],
					"source" : [ "obj-60", 0 ]
				}

			}
, 			{
				"patchline" : 				{
					"destination" : [ "obj-70", 1 ],
					"source" : [ "obj-62", 0 ]
				}

			}
, 			{
				"patchline" : 				{
					"destination" : [ "obj-62", 0 ],
					"source" : [ "obj-63", 0 ]
				}

			}
, 			{
				"patchline" : 				{
					"destination" : [ "obj-21", 1 ],
					"order" : 0,
					"source" : [ "obj-64", 0 ]
				}

			}
, 			{
				"patchline" : 				{
					"destination" : [ "obj-63", 0 ],
					"order" : 1,
					"source" : [ "obj-64", 0 ]
				}

			}
, 			{
				"patchline" : 				{
					"destination" : [ "obj-70", 0 ],
					"source" : [ "obj-69", 0 ]
				}

			}
, 			{
				"patchline" : 				{
					"destination" : [ "obj-70", 0 ],
					"source" : [ "obj-7", 0 ]
				}

			}
, 			{
				"patchline" : 				{
					"destination" : [ "obj-38", 0 ],
					"source" : [ "obj-70", 0 ]
				}

			}
, 			{
				"patchline" : 				{
					"destination" : [ "obj-69", 0 ],
					"source" : [ "obj-75", 0 ]
				}

			}
, 			{
				"patchline" : 				{
					"destination" : [ "obj-14", 0 ],
					"order" : 1,
					"source" : [ "obj-8", 0 ]
				}

			}
, 			{
				"patchline" : 				{
					"destination" : [ "obj-28", 0 ],
					"order" : 0,
					"source" : [ "obj-8", 0 ]
				}

			}
, 			{
				"patchline" : 				{
					"destination" : [ "obj-8", 0 ],
					"source" : [ "obj-9", 0 ]
				}

			}
, 			{
				"patchline" : 				{
					"destination" : [ "obj-95", 0 ],
					"order" : 1,
					"source" : [ "obj-92", 0 ]
				}

			}
, 			{
				"patchline" : 				{
					"destination" : [ "obj-96", 1 ],
					"order" : 0,
					"source" : [ "obj-92", 0 ]
				}

			}
, 			{
				"patchline" : 				{
					"destination" : [ "obj-69", 2 ],
					"source" : [ "obj-94", 0 ]
				}

			}
, 			{
				"patchline" : 				{
					"destination" : [ "obj-94", 0 ],
					"source" : [ "obj-95", 0 ]
				}

			}
 ],
		"parameters" : 		{
			"obj-11" : [ "multislider[2]", "multislider", 0 ],
			"obj-2" : [ "Feedback Input", "Feedback Input", 0 ],
			"obj-32" : [ "Reverb", "Reverb", 0 ],
			"obj-43" : [ "multislider", "multislider", 0 ],
			"obj-5" : [ "number", "number", 0 ],
			"obj-57" : [ "Output", "Output", 0 ],
			"obj-7" : [ "Feedback Output", "Feedback Output", 0 ],
			"obj-92" : [ "multislider[1]", "multislider", 0 ],
			"parameterbanks" : 			{

			}
,
			"inherited_shortname" : 1
		}
,
		"dependency_cache" : [ 			{
				"name" : "LFOs.maxpat",
				"bootpath" : "~/GitHub/max_latent",
				"patcherrelativepath" : ".",
				"type" : "JSON",
				"implicit" : 1
			}
, 			{
				"name" : "freeverb.gendsp",
				"bootpath" : "~/Documents/Max 8/Library",
				"patcherrelativepath" : "../../Documents/Max 8/Library",
				"type" : "gDSP",
				"implicit" : 1
			}
, 			{
				"name" : "mcs.nn~.mxo",
				"type" : "iLaX"
			}
, 			{
				"name" : "patchername.js",
				"bootpath" : "~/GitHub/max",
				"patcherrelativepath" : "../max",
				"type" : "TEXT",
				"implicit" : 1
			}
, 			{
				"name" : "record.maxpat",
				"bootpath" : "~/GitHub/max",
				"patcherrelativepath" : "../max",
				"type" : "JSON",
				"implicit" : 1
			}
 ],
		"autosave" : 0,
		"styles" : [ 			{
				"name" : "AudioStatus_Menu",
				"default" : 				{
					"bgfillcolor" : 					{
						"angle" : 270.0,
						"autogradient" : 0,
						"color" : [ 0.294118, 0.313726, 0.337255, 1 ],
						"color1" : [ 0.454902, 0.462745, 0.482353, 0.0 ],
						"color2" : [ 0.290196, 0.309804, 0.301961, 1.0 ],
						"proportion" : 0.39,
						"type" : "color"
					}

				}
,
				"parentstyle" : "",
				"multi" : 0
			}
, 			{
				"name" : "Audiomix",
				"default" : 				{
					"bgfillcolor" : 					{
						"angle" : 270.0,
						"color" : [ 0.290196, 0.309804, 0.301961, 1.0 ],
						"color1" : [ 0.376471, 0.384314, 0.4, 1.0 ],
						"color2" : [ 0.290196, 0.309804, 0.301961, 1.0 ],
						"proportion" : 0.39,
						"type" : "gradient"
					}

				}
,
				"parentstyle" : "",
				"multi" : 0
			}
, 			{
				"name" : "classic",
				"default" : 				{
					"accentcolor" : [ 0.498039, 0.498039, 0.498039, 1.0 ],
					"bgcolor" : [ 0.83978, 0.839941, 0.839753, 1.0 ],
					"bgfillcolor" : 					{
						"angle" : 270.0,
						"color" : [ 0.839216, 0.839216, 0.839216, 1.0 ],
						"color1" : [ 0.83978, 0.839941, 0.839753, 1.0 ],
						"color2" : [ 0.290196, 0.309804, 0.301961, 1.0 ],
						"proportion" : 0.39,
						"type" : "color"
					}
,
					"color" : [ 0.498039, 0.498039, 0.498039, 1.0 ],
					"fontname" : [ "Geneva" ],
					"fontsize" : [ 9.0 ],
					"patchlinecolor" : [ 0.0, 0.0, 0.0, 1.0 ],
					"textcolor_inverse" : [ 0.0, 0.0, 0.0, 1.0 ]
				}
,
				"parentstyle" : "",
				"multi" : 0
			}
, 			{
				"name" : "classicButton",
				"default" : 				{
					"color" : [ 1.0, 0.890196, 0.090196, 1.0 ]
				}
,
				"parentstyle" : "",
				"multi" : 0
			}
, 			{
				"name" : "classicDial",
				"default" : 				{
					"color" : [ 1.0, 0.890196, 0.090196, 1.0 ]
				}
,
				"parentstyle" : "",
				"multi" : 0
			}
, 			{
				"name" : "classicGain~",
				"default" : 				{
					"color" : [ 0.380392, 0.380392, 0.380392, 1.0 ]
				}
,
				"parentstyle" : "",
				"multi" : 0
			}
, 			{
				"name" : "classicGswitch",
				"default" : 				{
					"accentcolor" : [ 1.0, 1.0, 1.0, 1.0 ]
				}
,
				"parentstyle" : "",
				"multi" : 0
			}
, 			{
				"name" : "classicGswitch2",
				"default" : 				{
					"accentcolor" : [ 1.0, 1.0, 1.0, 1.0 ]
				}
,
				"parentstyle" : "",
				"multi" : 0
			}
, 			{
				"name" : "classicKslider",
				"default" : 				{
					"bgcolor" : [ 0.0, 0.0, 0.0, 1.0 ],
					"color" : [ 1.0, 1.0, 1.0, 1.0 ],
					"elementcolor" : [ 0.498039, 0.498039, 0.498039, 1.0 ],
					"selectioncolor" : [ 0.498039, 0.498039, 0.498039, 1.0 ]
				}
,
				"parentstyle" : "",
				"multi" : 0
			}
, 			{
				"name" : "classicLed",
				"default" : 				{
					"color" : [ 1.0, 0.0, 0.0, 1.0 ],
					"elementcolor" : [ 0.6, 0.0, 0.0, 1.0 ]
				}
,
				"parentstyle" : "",
				"multi" : 0
			}
, 			{
				"name" : "classicMatrixctrl",
				"default" : 				{
					"color" : [ 1.0, 0.0, 0.0, 1.0 ]
				}
,
				"parentstyle" : "",
				"multi" : 0
			}
, 			{
				"name" : "classicMeter~",
				"default" : 				{
					"bgcolor" : [ 0.380392, 0.380392, 0.380392, 1.0 ],
					"elementcolor" : [ 0.498039, 0.498039, 0.498039, 1.0 ]
				}
,
				"parentstyle" : "",
				"multi" : 0
			}
, 			{
				"name" : "classicNodes",
				"default" : 				{
					"color" : [ 0.839216, 0.839216, 0.839216, 1.0 ],
					"elementcolor" : [ 0.498039, 0.498039, 0.498039, 1.0 ],
					"fontsize" : [ 9.0 ]
				}
,
				"parentstyle" : "",
				"multi" : 0
			}
, 			{
				"name" : "classicNslider",
				"default" : 				{
					"color" : [ 0.0, 0.0, 0.0, 1.0 ]
				}
,
				"parentstyle" : "",
				"multi" : 0
			}
, 			{
				"name" : "classicNumber",
				"default" : 				{
					"selectioncolor" : [ 1.0, 0.890196, 0.0, 1.0 ]
				}
,
				"parentstyle" : "",
				"multi" : 0
			}
, 			{
				"name" : "classicPictslider",
				"default" : 				{
					"elementcolor" : [ 0.498039, 0.498039, 0.498039, 1.0 ]
				}
,
				"parentstyle" : "",
				"multi" : 0
			}
, 			{
				"name" : "classicPreset",
				"default" : 				{
					"color" : [ 1.0, 0.890196, 0.090196, 1.0 ]
				}
,
				"parentstyle" : "",
				"multi" : 0
			}
, 			{
				"name" : "classicScope~",
				"default" : 				{
					"bgcolor" : [ 0.498039, 0.498039, 0.498039, 1.0 ],
					"color" : [ 0.462745, 0.933333, 0.0, 1.0 ]
				}
,
				"parentstyle" : "",
				"multi" : 0
			}
, 			{
				"name" : "classicTab",
				"default" : 				{
					"color" : [ 0.498039, 0.498039, 0.498039, 1.0 ],
					"elementcolor" : [ 0.839216, 0.839216, 0.839216, 1.0 ]
				}
,
				"parentstyle" : "",
				"multi" : 0
			}
, 			{
				"name" : "classicTextbutton",
				"default" : 				{
					"accentcolor" : [ 0.0, 0.0, 0.0, 1.0 ],
					"color" : [ 1.0, 1.0, 1.0, 1.0 ]
				}
,
				"parentstyle" : "",
				"multi" : 0
			}
, 			{
				"name" : "classicToggle",
				"default" : 				{
					"color" : [ 0.380392, 0.380392, 0.380392, 1.0 ],
					"elementcolor" : [ 0.376471, 0.384314, 0.4, 0.0 ]
				}
,
				"parentstyle" : "",
				"multi" : 0
			}
, 			{
				"name" : "classicUmenu",
				"default" : 				{
					"color" : [ 1.0, 1.0, 1.0, 1.0 ]
				}
,
				"parentstyle" : "",
				"multi" : 0
			}
, 			{
				"name" : "classicWaveform~",
				"default" : 				{
					"color" : [ 0.380392, 0.380392, 0.380392, 1.0 ],
					"selectioncolor" : [ 0.498039, 0.498039, 0.498039, 0.5 ]
				}
,
				"parentstyle" : "",
				"multi" : 0
			}
, 			{
				"name" : "ksliderWhite",
				"default" : 				{
					"color" : [ 1.0, 1.0, 1.0, 1.0 ]
				}
,
				"parentstyle" : "",
				"multi" : 0
			}
, 			{
				"name" : "lightbutton",
				"default" : 				{
					"bgcolor" : [ 0.309495, 0.299387, 0.299789, 1.0 ],
					"elementcolor" : [ 0.654902, 0.572549, 0.376471, 1.0 ]
				}
,
				"parentstyle" : "",
				"multi" : 0
			}
, 			{
				"name" : "newobjBlue-1",
				"default" : 				{
					"accentcolor" : [ 0.317647, 0.654902, 0.976471, 1.0 ]
				}
,
				"parentstyle" : "",
				"multi" : 0
			}
, 			{
				"name" : "newobjBrown-1",
				"default" : 				{
					"accentcolor" : [ 0.654902, 0.572549, 0.376471, 1.0 ]
				}
,
				"parentstyle" : "",
				"multi" : 0
			}
, 			{
				"name" : "newobjCyan-1",
				"default" : 				{
					"accentcolor" : [ 0.029546, 0.773327, 0.821113, 1.0 ]
				}
,
				"parentstyle" : "",
				"multi" : 0
			}
, 			{
				"name" : "newobjGreen-1",
				"default" : 				{
					"accentcolor" : [ 0.0, 0.533333, 0.168627, 1.0 ]
				}
,
				"parentstyle" : "",
				"multi" : 0
			}
, 			{
				"name" : "newobjRed-1",
				"default" : 				{
					"accentcolor" : [ 0.784314, 0.145098, 0.023529, 1.0 ]
				}
,
				"parentstyle" : "",
				"multi" : 0
			}
, 			{
				"name" : "newobjYellow-1",
				"default" : 				{
					"accentcolor" : [ 0.82517, 0.78181, 0.059545, 1.0 ],
					"fontsize" : [ 12.059008 ]
				}
,
				"parentstyle" : "",
				"multi" : 0
			}
, 			{
				"name" : "numberGold-1",
				"default" : 				{
					"accentcolor" : [ 0.764706, 0.592157, 0.101961, 1.0 ]
				}
,
				"parentstyle" : "",
				"multi" : 0
			}
, 			{
				"name" : "purple",
				"default" : 				{
					"bgcolor" : [ 0.304029, 0.250694, 0.285628, 1.0 ],
					"textcolor_inverse" : [ 0.701961, 0.415686, 0.886275, 1.0 ]
				}
,
				"parentstyle" : "",
				"multi" : 0
			}
, 			{
				"name" : "receives",
				"default" : 				{
					"accentcolor" : [ 0.870588, 0.415686, 0.062745, 1.0 ]
				}
,
				"parentstyle" : "",
				"multi" : 0
			}
, 			{
				"name" : "rsliderGold",
				"default" : 				{
					"bgcolor" : [ 0.764706, 0.592157, 0.101961, 1.0 ],
					"color" : [ 0.646639, 0.821777, 0.854593, 1.0 ]
				}
,
				"parentstyle" : "",
				"multi" : 0
			}
, 			{
				"name" : "sends",
				"default" : 				{
					"accentcolor" : [ 0.0, 0.533333, 0.168627, 1.0 ]
				}
,
				"parentstyle" : "",
				"multi" : 0
			}
, 			{
				"name" : "tastefulltoggle",
				"default" : 				{
					"bgcolor" : [ 0.185512, 0.263736, 0.260626, 1.0 ],
					"color" : [ 0.941176, 0.690196, 0.196078, 1.0 ]
				}
,
				"parentstyle" : "",
				"multi" : 0
			}
, 			{
				"name" : "tastefultoggle",
				"default" : 				{
					"bgcolor" : [ 0.287863, 0.333333, 0.329398, 1.0 ],
					"color" : [ 0.941176, 0.690196, 0.196078, 1.0 ],
					"elementcolor" : [ 0.654902, 0.572549, 0.376471, 1.0 ]
				}
,
				"parentstyle" : "",
				"multi" : 0
			}
 ]
	}

}
